<?xml version="1.0" encoding="UTF-8"?>
<svg version="1.1" xmlns="http://www.w3.org/2000/svg" width="1080" height="1080">
<path d="M0 0 C356.4 0 712.8 0 1080 0 C1080 356.4 1080 712.8 1080 1080 C723.6 1080 367.2 1080 0 1080 C0 723.6 0 367.2 0 0 Z " fill="#FEFEFE" transform="translate(0,0)"/>
<path d="M0 0 C1.74603516 0.00966797 1.74603516 0.00966797 3.52734375 0.01953125 C7.0625 0.1875 7.0625 0.1875 10.24079895 0.69288635 C14.45488528 1.23828344 18.50404256 1.30597221 22.74487305 1.26928711 C23.58493393 1.26622055 24.42499481 1.26315399 25.29051208 1.25999451 C27.1047074 1.25287271 28.918895 1.2435004 30.73306847 1.23209953 C33.61435332 1.21459999 36.49558185 1.20437456 39.37690735 1.19618225 C47.566023 1.17183179 55.75506292 1.13634394 63.9440918 1.09155273 C68.9642315 1.06460287 73.98432738 1.04766871 79.00452614 1.03668404 C80.90651885 1.03052027 82.80850354 1.02057381 84.71045494 1.00660515 C116.07717492 0.77835318 116.07717492 0.77835318 127.48046875 11.12109375 C131.97544723 15.76463662 134.40114162 21.23849123 137.0625 27.0625 C137.61663574 28.24376465 138.17077148 29.4250293 138.74169922 30.64208984 C140.53876565 34.47990877 142.30282522 38.3324246 144.0625 42.1875 C144.64613268 43.4629026 145.2297914 44.73829329 145.81347656 46.01367188 C148.2390475 51.32004667 150.65462459 56.63089452 153.05712891 61.94775391 C158.11664581 73.14251442 163.26284468 84.29553947 168.4375 95.4375 C183.09969243 127.019648 197.58628765 158.68179268 212.05212402 190.35424805 C214.36763418 195.42387035 216.68357479 200.49329574 219 205.5625 C219.32814697 206.28066895 219.65629395 206.99883789 219.99438477 207.73876953 C223.76089015 215.98094337 227.53422006 224.21992845 231.3203125 232.453125 C231.6749054 233.22423111 232.02949829 233.99533722 232.39483643 234.78981018 C233.8307034 237.91192684 235.26671819 241.0339752 236.70336914 244.1557312 C240.43595216 252.26723883 244.15963744 260.38233379 247.8359375 268.51953125 C264.4896273 305.37652857 281.6482627 342.05323935 300.66992188 377.75854492 C303.56015974 383.19013474 306.32786099 388.67608578 309.0625 394.1875 C312.12513949 400.35982414 315.2557333 406.4838344 318.5 412.5625 C327.03706067 428.58704177 334.97393473 444.93361969 343.0625 461.1875 C343.14382167 448.961631 342.91919004 436.77852712 342.44140625 424.5625 C342.37629141 422.83773727 342.31143215 421.11296488 342.24681091 419.38818359 C342.1118607 415.80492981 341.97468981 412.22177094 341.83569336 408.63867188 C341.65972891 404.10102687 341.4881399 399.56323005 341.31808567 395.02536011 C341.18469109 391.47317503 341.04957992 387.92105686 340.91392326 384.36895752 C340.85018521 382.69803245 340.78680166 381.02709381 340.72381783 379.35614014 C340.63463185 377.00038238 340.54328874 374.64471684 340.45141602 372.2890625 C340.42695908 371.63399719 340.40250214 370.97893188 340.37730408 370.30401611 C340.23463811 366.70287439 340.05737721 363.10951948 339.82110786 359.51296329 C338.95707465 346.19868157 338.90711017 332.91253863 338.90136719 319.57397461 C338.89672721 317.03642202 338.89170101 314.4988701 338.88632202 311.96131897 C338.87328571 305.10286707 338.86672731 298.24442632 338.86231136 291.38596416 C338.85952118 287.06595349 338.85527845 282.74594496 338.85080719 278.42593575 C338.83861302 266.36673976 338.82832445 254.30754547 338.8249321 242.24834347 C338.82471253 241.47900737 338.82449297 240.70967128 338.82426675 239.91702196 C338.82404847 239.14620656 338.82383019 238.37539115 338.8236053 237.58121771 C338.8231619 236.02020959 338.82271533 234.45920147 338.82226562 232.89819336 C338.8220442 232.12393781 338.82182277 231.34968225 338.82159463 230.55196441 C338.81768577 218.13599632 338.80035442 205.72008833 338.7769061 193.30414324 C338.75279254 180.42676597 338.74071205 167.5494182 338.73956418 154.67201811 C338.73866756 147.49540732 338.73336065 140.31887492 338.71474457 133.1422863 C338.64027735 103.14145107 338.98612607 73.19412781 340.30105311 43.22095425 C340.3947584 41.05855368 340.4840022 38.89600687 340.57234335 36.73338115 C340.73771773 32.73131194 340.9289605 28.73093484 341.12481689 24.73023987 C341.17392731 23.54387959 341.22303773 22.35751931 341.27363634 21.13520873 C341.82146561 10.92084007 341.82146561 10.92084007 345.0625 6.1875 C350.2518724 2.2954707 355.85905167 2.58892165 362.0625 3.1875 C364.17214766 3.64192802 366.27599441 4.12370808 368.375 4.625 C377.73871434 6.71772202 387.24986816 6.64716362 396.80395508 6.72045898 C398.06876709 6.74052002 399.3335791 6.76058105 400.63671875 6.78125 C402.34734497 6.79188477 402.34734497 6.79188477 404.0925293 6.80273438 C407.59895622 7.25699897 408.72104969 7.53269683 411.0625 10.1875 C411.59134023 13.36274678 411.39348143 16.49603347 411.25195312 19.70214844 C411.22544174 20.68400368 411.19893036 21.66585892 411.1716156 22.67746735 C411.11160389 24.82780348 411.04244952 26.97789871 410.96543884 29.12769318 C410.79849763 33.81836443 410.67744289 38.50989086 410.5542984 43.20188522 C410.48871163 45.6984034 410.42099219 48.19486634 410.35128021 50.69127274 C409.97523196 64.44399826 409.8695093 78.19605146 409.78125 91.953125 C409.76291004 94.51490433 409.74434838 97.07668209 409.72557068 99.63845825 C409.68288737 105.54526077 409.64261216 111.45207592 409.60339051 117.35890234 C409.51958649 129.92663223 409.42594311 142.4942949 409.33207965 155.06195307 C409.31643485 157.16022719 409.30090592 159.25850214 409.28538704 161.35677719 C409.11195852 184.72127124 408.86183305 208.0843072 408.56704712 231.4475708 C407.49130471 309.13942604 407.49130471 309.13942604 409.52734375 386.796875 C409.56594513 387.62468475 409.60454651 388.45249451 409.64431763 389.3053894 C409.8286561 392.90726187 410.09438366 396.43699577 410.55201721 400.01806641 C411.31564458 406.79479982 411.37249083 413.60296947 411.52734375 420.41503906 C411.5649344 421.94206068 411.60287745 423.46907366 411.6411438 424.99607849 C411.72246971 428.26982997 411.80139869 431.54362712 411.87844849 434.81748199 C412.00063579 440.0054412 412.12868739 445.19324584 412.25756836 450.38104248 C412.50730739 460.46455718 412.75151268 470.54820187 412.99479675 480.63187408 C413.30416402 493.45206883 413.61492146 506.27222544 413.93295002 519.09220862 C414.06038427 524.23755975 414.18449192 529.38297664 414.30593872 534.52847242 C414.38252181 537.74460664 414.46194238 540.96066652 414.54207993 544.17671394 C414.57833666 545.65478483 414.61344748 547.13288439 414.64725113 548.61101341 C414.8290115 556.53111315 415.15527046 564.41091708 415.84025574 572.3060112 C416.21947081 577.22269147 416.28592705 582.13321803 416.3125 587.0625 C416.3434375 588.53203125 416.3434375 588.53203125 416.375 590.03125 C416.40655225 595.88419262 415.90226819 600.03180435 413.0625 605.1875 C409.4662081 608.55902365 406.14791913 609.30964683 401.3190918 609.34863281 C400.35766769 609.35824036 399.39624359 609.3678479 398.40568542 609.37774658 C397.36817642 609.38199646 396.33066742 609.38624634 395.26171875 609.390625 C394.19258743 609.39632507 393.12345612 609.40202515 392.02192688 609.40789795 C389.75819895 609.41734816 387.49445727 609.42388201 385.23071289 609.42773438 C381.77400592 609.43743265 378.31789535 609.46845343 374.86132812 609.5 C372.66146186 609.50653091 370.46159135 609.51178104 368.26171875 609.515625 C367.23028244 609.5279718 366.19884613 609.5403186 365.13615417 609.55303955 C359.68384286 609.53618586 355.75898303 609.28952443 351.0625 606.1875 C338.88924498 593.93654335 333.60057217 572.24433328 327.41308594 556.60058594 C300.89350093 489.36925959 300.89350093 489.36925959 270.79199219 423.69824219 C267.8808087 417.78875341 264.99784287 411.86570997 262.125 405.9375 C261.83743835 405.34427948 261.54987671 404.75105896 261.25360107 404.13986206 C255.8992832 393.07737802 250.79824586 381.90672737 245.74291992 370.70507812 C241.39370627 361.0743598 236.94474188 351.49517349 232.4375 341.9375 C226.40500704 329.13362419 220.56708961 316.25161165 214.80630493 303.32287598 C209.94281441 292.42167146 204.99828268 281.55664231 200.06689453 270.68603516 C196.57446318 262.98289796 193.08716917 255.27929428 189.6953125 247.53125 C177.27695945 219.21438055 163.39549807 191.47503088 148.32275391 164.47753906 C146.16811177 160.56228465 144.12187734 156.59092142 142.0625 152.625 C137.11876968 143.13870844 131.81877865 133.86481826 126.45947266 124.60839844 C124.65060794 121.47370733 122.85750259 118.33015072 121.0625 115.1875 C120.93510259 132.04510767 121.27912159 148.87543896 121.77280426 165.72449303 C121.90706867 170.30912243 122.03578679 174.89389834 122.16351318 179.47871399 C122.20823757 181.08264831 122.252963 182.68658259 122.29768944 184.29051685 C122.32012364 185.09534524 122.34255785 185.90017362 122.36567187 186.72939074 C122.43478694 189.20399724 122.50426994 191.67859314 122.57387733 194.15318584 C124.11093081 248.80777785 125.49545918 303.44400035 125.82202148 358.12182617 C125.82746601 359.03188919 125.83291054 359.94195221 125.83852005 360.8795929 C125.84656221 362.22894676 125.84656221 362.22894676 125.85476685 363.6055603 C125.86009556 364.49549053 125.86542427 365.38542076 125.87091446 366.30231857 C125.8813766 368.06744607 125.89157081 369.83257518 125.90148544 371.59770584 C125.99720044 388.01195207 126.32547167 404.41811442 126.69110107 420.82829285 C126.95551627 432.73552959 127.17561768 444.64133932 127.30859375 456.55078125 C127.31659437 457.25445454 127.32459499 457.95812782 127.33283806 458.68312454 C127.36475927 461.49311618 127.39636912 464.30311106 127.42750645 467.1131115 C127.71094803 492.56427057 128.18751439 517.99942159 129.0625 543.4375 C129.10438446 544.67416412 129.14626892 545.91082825 129.18942261 547.18496704 C129.30927927 550.67036594 129.43441574 554.15551956 129.5625 557.640625 C129.59791397 558.64052963 129.63332794 559.64043427 129.66981506 560.67063904 C129.89914954 566.60001696 130.30087601 572.49474736 130.83462524 578.40463257 C131.22092147 583.1221853 131.36470929 587.83110361 131.4375 592.5625 C131.47488281 593.50738281 131.51226563 594.45226562 131.55078125 595.42578125 C131.60586892 599.78994917 131.61571692 603.15536037 128.9140625 606.7265625 C124.39747715 610.62443753 119.98362681 611.42191913 114.125 611.53125 C112.40796875 611.57572266 112.40796875 611.57572266 110.65625 611.62109375 C109.4703125 611.64300781 108.284375 611.66492188 107.0625 611.6875 C98.46226044 611.85516522 89.99474747 612.34108397 81.4375 613.1796875 C70.64205562 614.22112356 59.90288046 614.63278746 49.0625 614.8125 C48.11301483 614.83018433 47.16352966 614.84786865 46.18527222 614.86608887 C38.81131877 615.00249869 31.43719695 615.10148767 24.0625 615.1875 C22.87940247 615.2018811 21.69630493 615.21626221 20.47735596 615.2310791 C13.06625516 615.31825841 5.65542591 615.38170087 -1.75610352 615.41766357 C-4.15652515 615.43082112 -6.55692578 615.44871674 -8.95727539 615.47149658 C-12.3245124 615.5012863 -15.69123994 615.51113254 -19.05859375 615.515625 C-20.55718178 615.53406967 -20.55718178 615.53406967 -22.08604431 615.55288696 C-28.85995011 615.53148211 -33.58975661 614.60531467 -39.1875 610.5625 C-50.24031923 595.56224532 -48.11281186 570.17605313 -48.0625 552.4375 C-48.06128143 551.49460114 -48.06006287 550.55170227 -48.05880737 549.58023071 C-48.0254856 526.68164864 -47.77260048 503.78347591 -47.53133392 480.88633728 C-47.5001867 477.89294292 -47.47032142 474.89953808 -47.44073486 471.90612793 C-47.39283504 467.10086634 -47.34038075 462.29567303 -47.28468513 457.49049568 C-47.2645748 455.70756536 -47.24575443 453.92461989 -47.22839165 452.14166069 C-47.12588825 441.76765019 -46.7906256 431.44348975 -46.16462708 421.08772278 C-45.90806474 416.68203812 -45.75918712 412.28688578 -45.69140625 407.875 C-45.65982556 406.28490571 -45.62791168 404.69481802 -45.59570312 403.10473633 C-45.58031494 402.30210358 -45.56492676 401.49947083 -45.54907227 400.67251587 C-45.26786364 386.4321319 -44.78158073 372.21847849 -43.9375 358 C-43.89561554 357.2773999 -43.85373108 356.5547998 -43.81057739 355.81030273 C-43.12073667 344.06428397 -43.12073667 344.06428397 -42.44699097 340.84042358 C-41.9214405 338.10387805 -41.6801459 335.46712929 -41.50439453 332.68676758 C-41.43396439 331.60001236 -41.36353424 330.51325714 -41.29096985 329.39356995 C-41.21815292 328.21826218 -41.145336 327.04295441 -41.0703125 325.83203125 C-40.99100998 324.59762802 -40.91170746 323.36322479 -40.83000183 322.09141541 C-40.65981671 319.43882951 -40.49077074 316.78620003 -40.32363892 314.13342285 C-39.93064489 307.90011274 -39.52668296 301.66750949 -39.12330818 295.43486404 C-39.03313079 294.04092761 -38.94306746 292.64698378 -38.85311699 291.25303268 C-38.02874708 278.47808206 -37.16057818 265.70660332 -36.25 252.9375 C-36.18951477 252.07903473 -36.12902954 251.22056946 -36.06671143 250.33609009 C-35.03068109 235.65198947 -35.03068109 235.65198947 -34.4140625 230.60546875 C-33.6756397 224.44325225 -33.44976418 218.23184285 -33.12155151 212.0369873 C-32.50792415 200.49161084 -31.81657138 188.96155342 -30.875 177.4375 C-30.1237271 168.23979379 -29.59578789 159.05425344 -29.27905273 149.83105469 C-29.24755127 148.95739258 -29.2160498 148.08373047 -29.18359375 147.18359375 C-29.15966553 146.43263428 -29.1357373 145.6816748 -29.11108398 144.90795898 C-28.97387221 142.75753592 -28.72539787 140.61423659 -28.4375 138.47875977 C-27.66581827 131.69849001 -27.75029599 124.873869 -27.70770454 118.05851746 C-27.69100795 115.46948829 -27.66774879 112.88058817 -27.64280701 110.29162598 C-27.57292618 102.93341821 -27.51312112 95.57514905 -27.46069336 88.21679688 C-27.19908259 52.51107957 -27.19908259 52.51107957 -26.26325798 34.7804718 C-26.19070839 33.39100703 -26.12342157 32.00125493 -26.06204414 30.61125183 C-25.23178634 12.44523565 -25.23178634 12.44523565 -18.98521423 6.25183105 C-13.1511129 1.50517358 -7.50477078 -0.09121821 0 0 Z " fill="#000000" transform="translate(553.9375,236.8125)"/>
<path d="M0 0 C6.17690736 0.01739886 12.3534322 0.00700034 18.53032684 -0.01071739 C23.35686133 -0.02155883 28.18330469 -0.01811242 33.00984192 -0.01033401 C35.29026843 -0.00834884 37.57070349 -0.01073131 39.85112 -0.01777267 C43.0131141 -0.02542739 46.17447847 -0.01374029 49.33642578 0.00292969 C50.25371964 -0.00314301 51.17101349 -0.0092157 52.11610413 -0.01547241 C59.33329983 0.05468868 67.00515497 0.71505189 72.40722656 5.8671875 C74.40743605 10.88823509 74.34529425 15.41589987 74.27197266 20.77392578 C74.27105621 21.86575165 74.27013977 22.95757751 74.26919556 24.08248901 C74.26316829 26.38381311 74.24744879 28.68512968 74.22265625 30.98632812 C74.18608953 34.51087285 74.18163752 38.03436717 74.18212891 41.55908203 C74.17229946 43.79737238 74.16064322 46.0356556 74.14697266 48.27392578 C74.14474701 49.32814728 74.14252136 50.38236877 74.14022827 51.46853638 C74.12746857 52.4499057 74.11470886 53.43127502 74.1015625 54.44238281 C74.0939389 55.30364777 74.08631531 56.16491272 74.07846069 57.05227661 C73.78388145 59.62859277 73.248673 61.23565079 71.81103516 63.39111328 C68.89330242 64.36369086 67.06958434 64.51039874 64.03591919 64.49790955 C63.05244507 64.49639389 62.06897095 64.49487823 61.05569458 64.49331665 C59.4382283 64.4832106 59.4382283 64.4832106 57.78808594 64.47290039 C56.65095154 64.46983383 55.51381714 64.46676727 54.34222412 64.46360779 C51.86554391 64.45644187 49.38886939 64.44704628 46.91220474 64.43571281 C42.9744148 64.41831595 39.03666558 64.40801825 35.09884644 64.39979553 C23.8991917 64.37570614 12.69958945 64.34024259 1.5 64.29516602 C-4.68371394 64.27035555 -10.86740614 64.25314877 -17.05116284 64.24360663 C-20.31310823 64.23821019 -23.57491347 64.22782041 -26.8368187 64.21021843 C-41.3763496 64.13256984 -55.6300745 64.51500989 -70.0803833 66.16047096 C-74.6637902 66.66181633 -79.26453417 66.94482053 -83.86474609 67.24267578 C-84.81165817 67.30643402 -85.75857025 67.37019226 -86.73417664 67.43588257 C-89.65643105 67.6320347 -92.57893039 67.82418419 -95.50146484 68.01611328 C-97.52557146 68.15125947 -99.54966011 68.28667506 -101.57373047 68.42236328 C-106.445275 68.74836674 -111.31704362 69.07079064 -116.18896484 69.39111328 C-116.6766514 71.95223452 -117.15409916 74.51465629 -117.62646484 77.07861328 C-117.82852539 78.13145508 -117.82852539 78.13145508 -118.03466797 79.20556641 C-120.41040683 92.24315769 -120.36249464 105.414357 -120.44932556 118.61997795 C-120.47078962 121.88077581 -120.49778828 125.14149086 -120.52600098 128.40223694 C-120.57532669 134.20577538 -120.61990735 140.00933879 -120.66290283 145.81292725 C-120.73899343 156.07731702 -120.82001852 166.34165975 -120.90771484 176.60595703 C-120.91710083 177.7196101 -120.92648682 178.83326317 -120.93615723 179.9806633 C-121.13676187 203.1225131 -121.6123439 226.2558767 -122.18896484 249.39111328 C-112.58112373 249.14978779 -102.97333711 248.90641295 -93.36560917 248.6606226 C-88.90139638 248.54647671 -84.43716963 248.43296282 -79.97290039 248.32104492 C-74.80658951 248.1914156 -69.64033051 248.05988232 -64.47412109 247.92626953 C-63.62832111 247.90439953 -62.78252113 247.88252953 -61.91109085 247.8599968 C-51.74865757 247.59468508 -41.59184987 247.27697351 -31.43505859 246.84033203 C-21.80984489 246.4282707 -12.19632297 246.17478539 -2.56201172 246.15087891 C-0.95129025 246.14425042 0.65941448 246.13033165 2.27001953 246.10986328 C23.17329246 245.84463539 23.17329246 245.84463539 29.5065918 252.01904297 C32.2794699 255.51657939 32.49204452 258.85459256 32.36962891 263.20361328 C32.36729752 263.93555908 32.36496613 264.66750488 32.36256409 265.42163086 C32.35286779 266.96138245 32.33117563 268.5011006 32.2980957 270.04052734 C32.24867469 272.38449535 32.23660925 274.72635848 32.23095703 277.07080078 C32.21686841 278.57342705 32.20066304 280.07603527 32.18212891 281.57861328 C32.1767662 282.27253174 32.1714035 282.9664502 32.1658783 283.68139648 C32.03338028 289.15859328 31.64915685 293.57434678 27.63870239 297.53820801 C24.19886961 299.79225128 22.36460201 299.86227726 18.27905273 299.79931641 C17.62506941 299.79504639 16.97108608 299.79077637 16.29728508 299.78637695 C14.07856694 299.76727658 11.86135463 299.71944431 9.64306641 299.67236328 C8.0229559 299.65312428 6.40282046 299.63590022 4.78266907 299.6204834 C1.15082021 299.58292501 -2.48064123 299.53355179 -6.11224365 299.47705078 C-12.64884398 299.37903768 -19.18551489 299.32836074 -25.72265625 299.28173828 C-39.36479509 299.18195393 -53.00661608 299.05735345 -66.64849854 298.92755127 C-73.16002258 298.86597097 -79.67156478 298.80637261 -86.18310547 298.74658203 C-98.8517432 298.6299761 -111.52036088 298.51132906 -124.18896484 298.39111328 C-124.14456866 299.27383423 -124.14456866 299.27383423 -124.09927559 300.17438793 C-123.30323069 316.407353 -123.04004491 332.59749554 -123.05615234 348.84814453 C-123.05547623 351.29855865 -123.05450366 353.7489727 -123.05325317 356.1993866 C-123.05179428 361.28258923 -123.05387414 366.36577407 -123.05859375 371.44897461 C-123.06432983 377.94006396 -123.0609762 384.4311123 -123.05502129 390.9222002 C-123.05140022 395.96067105 -123.05256069 400.99913223 -123.05514908 406.03760338 C-123.05581202 408.4316375 -123.05501227 410.82567252 -123.05266953 413.21970558 C-123.05011305 416.56047512 -123.05402381 419.9011787 -123.05957031 423.24194336 C-123.05754608 424.21197296 -123.05552185 425.18200256 -123.05343628 426.181427 C-123.06742378 430.75901121 -123.23192086 435.24987931 -123.69293213 439.80540466 C-124.29208203 445.85105077 -124.30036599 451.84085685 -124.25488281 457.91162109 C-124.25020996 459.11142609 -124.24553711 460.31123108 -124.24072266 461.5473938 C-124.22757381 464.80333379 -124.2100812 468.05922053 -124.19156408 471.31513309 C-124.17399501 474.73910467 -124.16472478 478.16309503 -124.15530396 481.58709717 C-124.12204651 493.22105224 -124.08014888 504.85493274 -124.01757812 516.48876953 C-123.98300688 522.93243014 -123.95923292 529.37603759 -123.94736969 535.81978106 C-123.94061982 539.22093448 -123.92824503 542.6218605 -123.90233994 546.02292633 C-123.87586432 549.81144445 -123.86796833 553.59958445 -123.86425781 557.38818359 C-123.85190094 558.50522675 -123.83954407 559.6222699 -123.82681274 560.77316284 C-123.84525192 567.91168895 -124.53505591 572.88416219 -128.93896484 578.70361328 C-134.0046928 582.50290925 -140.00444509 582.69078143 -146.12646484 582.57861328 C-147.12323242 582.57764648 -147.12323242 582.57764648 -148.14013672 582.57666016 C-151.40503029 582.54815963 -154.47856048 582.35021906 -157.72424316 581.89189148 C-162.45346904 581.2958988 -167.12876532 581.23912123 -171.89038086 581.23339844 C-172.82640137 581.22831772 -173.76242188 581.223237 -174.72680664 581.21800232 C-176.74614613 581.20735608 -178.76549699 581.19871372 -180.78485298 581.19188309 C-183.98414761 581.18002276 -187.18331153 581.16055462 -190.3825531 581.13876343 C-199.47414807 581.07736723 -208.56572577 581.02305685 -217.6574707 580.98974609 C-223.23000162 580.96878539 -228.80228712 580.93348046 -234.37467766 580.88898849 C-236.49287974 580.87485072 -238.61112515 580.86611109 -240.72937202 580.86293411 C-243.69215705 580.85801733 -246.65429101 580.83484216 -249.61694336 580.80761719 C-250.92087288 580.81212639 -250.92087288 580.81212639 -252.25114441 580.81672668 C-257.6156155 580.74364206 -261.48925277 580.06796442 -266.18896484 577.39111328 C-268.6704197 574.25256014 -268.45612753 571.00073919 -268.49194336 567.09838867 C-268.50862061 565.8153183 -268.52529785 564.53224792 -268.54248047 563.21029663 C-268.5510713 561.8031217 -268.55953113 560.39594597 -268.56787109 558.98876953 C-268.58379747 557.52591947 -268.60066134 556.06307935 -268.6184082 554.60025024 C-268.65441273 551.4961722 -268.68467697 548.39211487 -268.7102356 545.28793335 C-268.77019492 538.03207441 -268.85765983 530.77652348 -268.94257927 523.52092171 C-268.97015274 521.13866639 -268.99655319 518.75640004 -269.02284241 516.37413025 C-269.14043976 505.97007287 -269.34442311 495.57237073 -269.68341064 485.17306519 C-271.90201438 416.89279926 -271.90201438 416.89279926 -267.70544434 393.72134399 C-265.23990906 377.82371124 -266.07542961 361.31931375 -266.14436531 345.28692436 C-266.16318375 340.88603897 -266.17239979 336.48516053 -266.18028259 332.08424377 C-266.20256398 320.34596299 -266.23339814 308.60771144 -266.27647644 296.86948782 C-266.31295696 286.9170719 -266.33913692 276.96468684 -266.34912109 267.01220703 C-266.34994714 266.25271594 -266.35077318 265.49322484 -266.35162425 264.71071887 C-266.37418614 238.68220159 -265.79916087 212.70190521 -264.91522217 186.68978882 C-264.8251165 184.0380696 -264.73514335 181.38634604 -264.64526367 178.73461914 C-264.58105382 176.84131741 -264.58105382 176.84131741 -264.5155468 174.90976715 C-264.00993855 159.58834059 -263.91929571 144.28194717 -264.00146484 128.95361328 C-264.00741538 126.84913671 -264.01178135 124.74465999 -264.01616859 122.64017963 C-264.0524462 106.56270077 -264.26712972 90.50080697 -264.82397461 74.43286133 C-265.18382378 63.82504577 -265.36459521 53.22167926 -265.42114258 42.60794067 C-265.43284929 40.74126097 -265.44977614 38.87460529 -265.47241211 37.00802612 C-265.50242479 34.41420354 -265.51232667 31.82102765 -265.51708984 29.22705078 C-265.52939636 28.46613632 -265.54170288 27.70522186 -265.55438232 26.92124939 C-265.53198207 21.40777825 -264.54961413 16.40872059 -262.18896484 11.39111328 C-257.50505167 6.82144189 -254.23883638 6.24758142 -247.92651367 6.29345703 C-247.17622391 6.2949173 -246.42593414 6.29637756 -245.65290833 6.29788208 C-244.01491965 6.30169747 -242.37693514 6.3078238 -240.73896217 6.31594849 C-238.11329455 6.32877301 -235.487678 6.33524775 -232.86198425 6.34008789 C-226.31232117 6.35343745 -219.76270376 6.37711721 -213.21307373 6.40148926 C-185.32598487 6.50381815 -157.47789003 6.54036715 -129.64111328 4.60107422 C-124.65979014 4.29810831 -119.67970278 4.2042076 -114.69073486 4.10696411 C-103.81520075 3.88579424 -92.96171932 3.61802711 -82.12011719 2.68701172 C-54.73265765 0.34535868 -27.47923995 -0.07840298 0 0 Z " fill="#000000" transform="translate(381.18896484375,258.60888671875)"/>
</svg>
